<?xml version="1.0" standalone="no"?>
<!DOCTYPE svg PUBLIC "-//W3C//DTD SVG 20010904//EN"
 "http://www.w3.org/TR/2001/REC-SVG-20010904/DTD/svg10.dtd">
<svg version="1.0" xmlns="http://www.w3.org/2000/svg"
 width="314.000000pt" height="314.000000pt" viewBox="0 0 314.000000 314.000000"
 preserveAspectRatio="xMidYMid meet">
<metadata>
Created by potrace 1.11, written by Peter Selinger 2001-2013
</metadata>
<g transform="translate(0.000000,314.000000) scale(0.100000,-0.100000)"
fill="#000000" stroke="none">
<path d="M1563 3117 c-35 -43 -300 -474 -399 -648 -126 -221 -271 -512 -344
-689 -23 -58 -48 -118 -55 -135 -31 -72 -88 -270 -111 -385 -35 -171 -36 -369
-3 -517 45 -207 178 -411 353 -543 115 -87 250 -146 401 -175 69 -14 275 -14
340 -1 368 77 650 344 741 703 25 100 34 247 20 338 -17 117 -89 279 -159 362
-213 251 -530 339 -810 226 -285 -115 -457 -409 -391 -667 69 -266 335 -429
569 -347 32 12 75 34 95 49 50 41 108 120 122 167 13 46 16 126 6 170 -7 30
-7 30 8 -3 60 -134 -38 -340 -197 -415 -212 -100 -476 -10 -620 210 -128 196
-126 434 6 655 96 161 253 283 445 348 87 29 135 35 265 33 167 -2 315 -52
468 -155 31 -21 57 -37 57 -34 0 4 -49 125 -70 171 -5 11 -46 99 -93 195 -73
153 -106 216 -217 415 -17 32 -137 235 -193 330 -7 11 -22 34 -34 52 -13 17
-23 34 -23 38 0 3 -9 18 -19 33 -10 15 -48 73 -84 129 -47 75 -67 99 -74 90z
m365 -2052 c-3 -3 -9 2 -12 12 -6 14 -5 15 5 6 7 -7 10 -15 7 -18z"/>
</g>
</svg>
